<svg xmlns="http://www.w3.org/2000/svg" width="256" height="256"><path fill="#1976D2" fill-opacity=".016" fill-rule="evenodd" d="M0 128.004v128.004l128.25-.254 128.25-.254.254-127.75L257.008 0H0v128.004m.485.496c0 70.4.119 99.053.265 63.672.146-35.38.146-92.98 0-128C.604 29.153.485 58.1.485 128.5"/><path fill="#1976D2" fill-opacity=".159" fill-rule="evenodd" d="M119.5 6.07c-18.858 1.894-29.445 6.363-45 18.994-21.994 17.861-48.754 41.304-51.545 45.157-3.795 5.238-3.798 8.782-.011 12.569 3.562 3.563 9.606 5.26 21.056 5.915 17.717 1.013 30.011-3.736 51.504-19.896 19.583-14.724 23.418-16.477 29.296-13.391 2.629 1.38 20.7 19.433 36.62 36.582 4.34 4.675 12.666 13.45 18.503 19.5 5.836 6.05 18.479 19.321 28.094 29.49 31.962 33.804 34.79 36.591 35.955 35.432 2.048-2.037 7.934-20.931 9.606-30.834 2.194-12.997 1.493-38.26-1.389-50.088-5.398-22.151-14.425-39.282-30.338-57.577-4.866-5.596-5.766-6.139-18.235-11.013-13.344-5.216-33.457-12.107-46.129-15.806-7.969-2.327-26.229-6.148-28.487-5.962-.825.068-5.1.486-9.5.928m-6.499 65.071c-1.925 1.173-6.65 4.719-10.5 7.879-12.98 10.655-27.484 18.718-41.709 23.188-10.213 3.21-27.14 3.287-33.914.155-6.39-2.955-12.556-8.795-15.573-14.749-2.241-4.421-2.686-4.813-3.776-3.323-.68.93-2.089 5.407-3.132 9.949-2.479 10.795-2.526 37.63-.085 48.414 6.717 29.665 23.253 56.316 45.29 72.986 2.806 2.123 9.106 6.982 14 10.797 21.011 16.38 39.249 24.535 54.925 24.557 5.136.008 8.473-2.274 8.473-5.794 0-2.184-5.185-7.874-27.708-30.408l-27.707-27.721 2.382-2.535c1.31-1.395 3.109-2.536 3.998-2.536.889 0 14.54 12.983 30.335 28.851 25.97 26.09 29.207 29.009 33.824 30.5 5.652 1.825 12.465 2.136 16.147.736 3.209-1.22 8.729-6.833 8.729-8.875 0-.899-13.336-14.998-29.635-31.33l-29.634-29.695 2.203-3.094c1.211-1.701 2.656-3.093 3.21-3.093.555 0 14.812 13.896 31.682 30.879 27.307 27.491 31.215 31.058 35.602 32.5 9.286 3.054 17.357 1.537 23.49-4.415 4.368-4.239 5.396-7.784 3.397-11.707-.773-1.516-15.401-16.775-32.505-33.908-21.714-21.749-30.922-31.616-30.509-32.692.325-.847 1.777-2.317 3.227-3.267l2.635-1.727 28.896 28.919c18.437 18.45 30.262 29.525 32.669 30.594 10.75 4.776 23.272-1.635 23.272-11.916 0-4.232-.281-4.59-19.261-24.576-8.453-8.901-25.874-27.434-38.713-41.184a76104.422 76104.422 0 0 0-35.414-37.905c-6.64-7.097-13.431-13.733-15.092-14.746-4.004-2.442-9.22-2.329-13.519.292"/><path fill="#1976D2" fill-opacity=".502" fill-rule="evenodd" d="M112 7.912c-16.785 1.87-24.034 6.461-64.457 40.822-26.787 22.77-30.358 27.878-23.512 33.639 4.299 3.617 8.954 4.798 21.099 5.354 9.472.433 11.53.203 18.894-2.115C74.227 82.401 81.98 78.099 93 69.537c12.083-9.389 21.001-15.164 24.646-15.962 6.973-1.526 9.805.853 42.26 35.485 8.473 9.042 20.173 21.39 26 27.44 5.827 6.05 13.74 14.375 17.584 18.5 3.844 4.125 14.275 15.081 23.18 24.346l16.191 16.846 1.958-3.846c2.006-3.943 2.794-6.33 6.387-19.346 1.634-5.919 2.166-11.41 2.522-26.046.439-17.961.359-18.924-2.515-30.578-6.006-24.356-16.209-43.631-31.204-58.949-4.026-4.112-6.72-5.751-14.237-8.661-24.064-9.314-36.279-13.43-54.272-18.289-10.816-2.921-26.918-3.967-39.5-2.565m-.126 64.879c-1.995 1.49-6.72 5.223-10.5 8.295-27.187 22.093-60.337 30.744-78.044 20.367-5.156-3.022-10.763-8.797-12.919-13.307-1.817-3.801-2.607-3.355-4.167 2.354-4.269 15.615-4.196 40.081.17 56.56 4.454 16.815 10.726 30.399 20.046 43.416 7.452 10.408 12.625 15.578 27.04 27.027 29.245 23.226 43.636 30.804 61.043 32.142 7.484.575 8.366.446 10.32-1.508 1.175-1.175 2.137-2.71 2.137-3.411 0-.701-12.375-13.619-27.5-28.708C84.375 200.93 72 187.857 72 186.967c0-1.964 4.073-5.967 6.071-5.967.793 0 14.479 13.042 30.412 28.983C140.138 241.653 140.611 242 151.998 242c5.026 0 6.098-.391 9.822-3.578 2.299-1.968 4.18-4.317 4.18-5.22 0-.904-13.275-14.836-29.5-30.962-16.225-16.125-29.5-29.892-29.5-30.592 0-.701 1.304-2.523 2.898-4.051 2.309-2.211 3.275-2.57 4.75-1.76 1.019.558 14.227 13.488 29.352 28.731 15.125 15.244 29.41 29.199 31.745 31.012 7.736 6.006 19.009 5.89 26.204-.268 5.066-4.336 6.389-7.29 4.958-11.062-.574-1.512-15.188-16.941-32.476-34.285C157.144 162.621 143 148.021 143 147.52c0-1.296 5.163-6.52 6.444-6.52.588 0 13.891 12.871 29.563 28.603 18.377 18.448 29.913 29.269 32.493 30.478 10.666 5 22.485-.746 22.496-10.937.005-3.904-1.143-5.411-15.356-20.183-11.631-12.089-28.891-30.447-60.131-63.961-33.4-35.83-32.501-35.008-38.216-34.959-3.61.031-5.688.709-8.419 2.75"/><path fill="#1976D2" fill-opacity=".125" fill-rule="evenodd" d="M108.528 8.954c-.361.585 5.905 1.12 16.191 1.382 9.23.235 18.581.675 20.781.978 2.2.303 2.888.312 1.528.02-1.359-.292-3.372-1.162-4.472-1.933-2.364-1.655-33.032-2.058-34.028-.447m-5.259 2.739c.973.254 2.323.237 3-.037.677-.274-.119-.481-1.769-.461-1.65.02-2.204.244-1.231.498M97.5 13c-.34.55.057 1 .882 1s1.778-.45 2.118-1c.34-.55-.057-1-.882-1s-1.778.45-2.118 1m54.678-.044c.922.584 3.847 1.276 6.5 1.536 4.64.456 4.69.434 1.322-.578-1.925-.578-4.85-1.27-6.5-1.536-2.4-.388-2.664-.273-1.322.578m19.572 5.706c.688.278 1.813.278 2.5 0 .688-.277.125-.504-1.25-.504s-1.937.227-1.25.504M182 22c0 .55 1.012.993 2.25.985 1.819-.013 1.963-.201.75-.985-1.939-1.253-3-1.253-3 0m5 2.051c0 .843 7.864 2.419 8.566 1.716.237-.237-1.593-.894-4.067-1.46-2.475-.566-4.499-.682-4.499-.256M77.459 25.067c-1.026 1.66-.105 1.89 1.33.332.71-.769.849-1.399.309-1.399-.539 0-1.277.48-1.639 1.067m-6.801 5.382c-.372.969-.076 1.265.893.893 1.582-.607 1.994-2.342.556-2.342-.491 0-1.143.652-1.449 1.449m133.155-.766c.721.289 1.584.253 1.916-.079.332-.332-.258-.568-1.312-.525-1.165.048-1.402.285-.604.604m4 2c.721.289 1.584.253 1.916-.079.332-.332-.258-.568-1.312-.525-1.165.048-1.402.285-.604.604m4.27 1.6c.23.156 1.317.943 2.417 1.75 1.85 1.357 1.897 1.336.628-.283-.755-.962-1.843-1.75-2.417-1.75-.574 0-.857.127-.628.283M63.667 35.667c-.956.955-.822 2.333.226 2.333.491 0 1.152-.675 1.469-1.5.585-1.524-.481-2.048-1.695-.833m154.897 2.626c.376.986.935 1.541 1.243 1.233.308-.307.001-1.114-.683-1.793-.988-.98-1.102-.865-.56.56m6.536 7.412c.729 1.212 1.54 1.989 1.803 1.726.263-.263-.333-1.255-1.324-2.205-1.722-1.649-1.744-1.628-.479.479M50 47.5c-.694.837-.803 1.5-.245 1.5.55 0 1.56-.675 2.245-1.5.694-.837.803-1.5.245-1.5-.55 0-1.56.675-2.245 1.5m61.5 6.166c-1.758 1.409-1.778 1.526-.168.969 1.007-.349 2.245-.635 2.75-.635.505 0 .918-.45.918-1 0-1.416-1.182-1.191-3.5.666m15.25.554c1.237.597 2.25 1.467 2.25 1.933 0 .466.563.832 1.25.814.688-.019.188-.919-1.111-2-1.298-1.082-2.873-1.937-3.5-1.899-.626.037-.126.556 1.111 1.152m-19.937 2.463c.721.289 1.584.253 1.916-.079.332-.332-.258-.568-1.312-.525-1.165.048-1.402.285-.604.604M34.5 61.213l-3 3.157 3.483-2.134c1.916-1.173 3.641-2.607 3.833-3.185.662-1.984-1.319-.992-4.316 2.162m69.5-2.154c0 .582.45.781 1 .441s1-.816 1-1.059-.45-.441-1-.441-1 .477-1 1.059m131 1.819c0 .482.64 1.408 1.421 2.057 1.167.968 1.325.81.884-.878-.526-2.01-2.305-2.92-2.305-1.179M97.658 63.449c-.372.969-.076 1.265.893.893.797-.306 1.449-.958 1.449-1.449 0-1.438-1.735-1.026-2.342.556M94.5 66c-.34.55-.141 1 .441 1S96 66.55 96 66s-.198-1-.441-1-.719.45-1.059 1m144.579 1.583c.048 1.165.285 1.402.604.605.289-.722.253-1.585-.079-1.917-.332-.332-.568.258-.525 1.312M91 69.059c0 .582.45.781 1 .441s1-.816 1-1.059S92.55 68 92 68s-1 .477-1 1.059m-65.541 1.008c-.363.586-.445 1.281-.183 1.543s.743-.218 1.069-1.067c.676-1.762.1-2.072-.886-.476m87.203 3.183c-2.51 1.787-8.748 6.469-13.863 10.403C86.851 92.844 79.434 97.066 67 101.755c-10.197 3.845-14.071 4.6-23.804 4.638-9.808.038-16.473-1.49-22.196-5.09-3.694-2.324-8.921-8.315-10.736-12.303l-1.591-3.5L7.321 90c-3.219 10.72-4.404 28.903-2.79 42.804.862 7.426 4.233 21.843 6.044 25.847.784 1.733 1.425 3.499 1.425 3.923 0 .425 1.984 4.857 4.408 9.849 7.293 15.016 19.211 30.325 30.034 38.577 2.525 1.925 8.071 6.367 12.324 9.871 4.254 3.504 10.209 7.966 13.234 9.914 3.025 1.949 5.725 3.807 6 4.129 1.948 2.284 18.822 10.329 26.048 12.419 3.051.883 8.544 1.732 12.206 1.886 5.684.24 6.881-.012 8.171-1.719.831-1.1 1.526-2.459 1.543-3.021.018-.561-12.568-13.594-27.968-28.961-15.4-15.367-28-28.082-28-28.256 0-1.186 6.632-7.262 7.926-7.262.883 0 14.616 13.041 30.519 28.979 24.843 24.899 29.557 29.187 33.484 30.451 7.279 2.344 11.373 2.785 14.581 1.573 3.739-1.413 8.49-5.863 8.49-7.952 0-.867-13.275-14.733-29.5-30.815-16.225-16.081-29.5-29.814-29.5-30.517 0-1.342 6.273-7.719 7.593-7.719.421 0 14.383 13.702 31.027 30.449 18.02 18.132 31.887 31.279 34.281 32.5 5.405 2.758 13.977 2.752 19.515-.014 5.416-2.705 9.056-7.92 8.123-11.637-.447-1.779-11.852-13.956-32.364-34.555-17.421-17.495-31.838-32.283-32.037-32.863-.423-1.229 5.751-7.88 7.315-7.88.583 0 13.882 12.856 29.554 28.568 15.788 15.83 30.242 29.478 32.414 30.608 3.067 1.595 5.23 1.945 9.924 1.605 5.352-.387 6.308-.8 8.828-3.82 3.518-4.213 3.824-9.873.746-13.803-1.145-1.462-6.658-7.398-12.25-13.192-5.593-5.794-15.119-15.861-21.169-22.372-6.05-6.51-12.408-13.245-14.129-14.965-1.722-1.721-10.01-10.554-18.42-19.629-38.474-41.519-40.029-43-45.142-43-1.421 0-4.637 1.463-7.147 3.25m-89.98 1.857c-.56 2.143.749 6.893 1.9 6.893.348 0 .299-.787-.108-1.75-.408-.963-.674-2.987-.591-4.5.177-3.268-.429-3.592-1.201-.643M243.158 76c0 1.375.227 1.938.504 1.25.278-.687.278-1.812 0-2.5-.277-.687-.504-.125-.504 1.25M77 77.906c0 .499.9.671 2 .384 1.1-.288 2-.696 2-.907 0-.21-.9-.383-2-.383s-2 .408-2 .906m-50.187 5.777c.721.289 1.584.253 1.916-.079.332-.332-.258-.568-1.312-.525-1.165.048-1.402.285-.604.604m4.456 1.01c.973.254 2.323.237 3-.037.677-.274-.119-.481-1.769-.461-1.65.02-2.204.244-1.231.498m28.481-.031c.688.278 1.813.278 2.5 0 .688-.277.125-.504-1.25-.504s-1.937.227-1.25.504m186.265.529c.009.72.452 1.984.985 2.809.788 1.219.972 1.09.985-.691.008-1.205-.435-2.469-.985-2.809-.55-.34-.993-.029-.985.691M42.38 87.194c-.274.443 2.116.754 5.311.69 5.985-.12 5.651-.497-1.002-1.133-2.096-.2-4.035-.001-4.309.443m117.185-.299c-.305.493.096 1.145.89 1.449.963.37 1.258.072.887-.895-.645-1.68-1.011-1.794-1.777-.554M249.158 95c0 1.375.227 1.938.504 1.25.278-.687.278-1.812 0-2.5-.277-.687-.504-.125-.504 1.25m1.074 7c0 1.925.206 2.713.457 1.75.252-.963.252-2.537 0-3.5-.251-.963-.457-.175-.457 1.75m-73.827 3.5c1.484 1.375 2.978 2.5 3.321 2.5.342 0-.434-1.125-1.726-2.5s-2.786-2.5-3.32-2.5c-.535 0 .242 1.125 1.725 2.5m76.987 19.5c0 7.425.157 10.463.35 6.75.192-3.713.192-9.787 0-13.5-.193-3.713-.35-.675-.35 6.75M186 115.409c0 .19.675.906 1.5 1.591.865.718 1.5.815 1.5.229 0-.558-.675-1.274-1.5-1.591-.825-.316-1.5-.419-1.5-.229m5.5 5.591c.34.55.816 1 1.059 1s.441-.45.441-1-.477-1-1.059-1-.781.45-.441 1m58.658 26c0 1.375.227 1.938.504 1.25.278-.687.278-1.812 0-2.5-.277-.687-.504-.125-.504 1.25m-1 6c0 1.375.227 1.938.504 1.25.278-.687.278-1.812 0-2.5-.277-.687-.504-.125-.504 1.25M224 154.882c0 .55.45 1.278 1 1.618.55.34 1 .168 1-.382s-.45-1.278-1-1.618c-.55-.34-1-.168-1 .382m22.531 6.411c-.428.986-.497 2.074-.155 2.417 1.016 1.015 1.835-.411 1.367-2.382-.414-1.747-.468-1.748-1.212-.035M242.71 172c-.287 1.1-.115 2 .384 2 .498 0 .906-.9.906-2s-.173-2-.383-2c-.211 0-.619.9-.907 2"/></svg>